<svg width="476" height="99" viewBox="0 0 476 99" fill="none" xmlns="http://www.w3.org/2000/svg">
<g clip-path="url(#clip0_8801_1075)">
<path d="M64.9701 61.2886H111.551V49.0322H59.4531L64.9701 61.2886Z" fill="#9A0FF1"/>
<path d="M53.933 36.7759H111.548V24.5195H48.416L53.933 36.7759Z" fill="#9A0FF1"/>
<path d="M111.55 0H37.3906L42.901 12.2563H111.55V0Z" fill="#9A0FF1"/>
<path d="M38.6125 98.0645H50.8755L39.8414 73.5519H70.4856L64.9686 61.2889H34.3244L28.8074 49.0325H59.4516L53.9346 36.7762H23.2904L17.7734 24.5198H48.4175L42.9005 12.2568H0L38.6125 98.0645Z" fill="#9A0FF1"/>
<path d="M148.453 25.6143H142.041V74.9135H151.198V54.4885H176.058V46.0393H151.198V34.0701H178.877V25.6143H151.198H148.453Z" fill="white"/>
<path d="M218.103 41.1774C216.553 39.6746 214.757 38.5124 212.72 37.6909C210.676 36.8693 208.391 36.4619 205.853 36.4619C203.556 36.4619 201.325 36.9428 199.161 37.9046C197.003 38.8664 195.1 40.2089 193.457 41.9188C191.814 43.6354 190.498 45.6859 189.509 48.0837C188.521 50.4816 188.033 53.1332 188.033 56.0453C188.033 58.9575 188.527 61.549 189.509 63.9669C190.498 66.3847 191.807 68.462 193.457 70.1986C195.1 71.9352 197.003 73.2844 199.161 74.2462C201.318 75.208 203.549 75.6889 205.853 75.6889C208.391 75.6889 210.676 75.2681 212.72 74.4198C214.763 73.5716 216.56 72.4027 218.103 70.8999L219.512 74.9141H227.26V37.2367H218.103V41.1774ZM217.362 60.4803C216.867 61.8429 216.166 63.0251 215.251 64.0337C214.336 65.0422 213.234 65.8304 211.938 66.3914C210.649 66.9525 209.226 67.2397 207.677 67.2397C206.127 67.2397 204.638 66.9592 203.349 66.3914C202.06 65.8304 200.951 65.0422 200.036 64.0337C199.121 63.0251 198.419 61.8429 197.925 60.4803C197.431 59.1178 197.184 57.6417 197.184 56.0453C197.184 54.449 197.431 53.0397 197.925 51.6771C198.419 50.3146 199.121 49.1324 200.036 48.1238C200.951 47.1152 202.053 46.3271 203.349 45.766C204.638 45.205 206.08 44.9178 207.677 44.9178C209.273 44.9178 210.649 45.1983 211.938 45.766C213.227 46.3271 214.336 47.1152 215.251 48.1238C216.166 49.1324 216.867 50.3213 217.362 51.6771C217.856 53.0397 218.103 54.4958 218.103 56.0453C218.103 57.5949 217.856 59.1178 217.362 60.4803Z" fill="white"/>
<path d="M268.879 41.0372C267.423 39.5811 265.686 38.459 263.669 37.6575C261.652 36.8627 259.421 36.4619 256.976 36.4619C254.532 36.4619 252.468 36.8827 250.498 37.731C248.527 38.5792 246.884 39.7481 245.568 41.2509L244.159 37.2367H236.411V74.9141H245.568V53.5072C245.568 50.5951 246.41 48.2507 248.106 46.4674C249.796 44.684 252.047 43.789 254.866 43.789C257.684 43.789 260.015 44.684 261.732 46.4674C263.449 48.2507 264.303 50.6018 264.303 53.5072V74.9141H273.461V53.1532C273.461 50.6151 273.06 48.3309 272.265 46.287C271.464 44.2432 270.341 42.4932 268.885 41.0372H268.879Z" fill="white"/>
<path d="M312.682 41.1774C311.133 39.6746 309.336 38.5124 307.292 37.6909C305.248 36.8693 302.964 36.4619 300.426 36.4619C298.121 36.4619 295.897 36.9428 293.733 37.9046C291.576 38.8664 289.672 40.2089 288.029 41.9188C286.386 43.6354 285.07 45.6859 284.088 48.0837C283.1 50.4816 282.612 53.1332 282.612 56.0453C282.612 58.9575 283.107 61.549 284.088 63.9669C285.077 66.3847 286.386 68.462 288.029 70.1986C289.672 71.9352 291.576 73.2844 293.733 74.2462C295.891 75.208 298.121 75.6889 300.426 75.6889C302.964 75.6889 305.248 75.2681 307.292 74.4198C309.336 73.5716 311.133 72.4027 312.682 70.8999L314.091 74.9141H321.839V37.2367H312.682V41.1774ZM311.947 60.4803C311.453 61.8429 310.752 63.0251 309.837 64.0337C308.922 65.0422 307.82 65.8304 306.531 66.3914C305.241 66.9525 303.819 67.2397 302.269 67.2397C300.72 67.2397 299.23 66.9592 297.941 66.3914C296.652 65.8304 295.55 65.0422 294.635 64.0337C293.72 63.0251 293.018 61.8429 292.524 60.4803C292.03 59.1178 291.783 57.6417 291.783 56.0453C291.783 54.449 292.03 53.0397 292.524 51.6771C293.018 50.3146 293.72 49.1324 294.635 48.1238C295.55 47.1152 296.652 46.3271 297.941 45.766C299.23 45.205 300.68 44.9178 302.269 44.9178C303.859 44.9178 305.241 45.1983 306.531 45.766C307.82 46.3271 308.922 47.1152 309.837 48.1238C310.752 49.1324 311.453 50.3213 311.947 51.6771C312.442 53.0397 312.689 54.4958 312.689 56.0453C312.689 57.5949 312.442 59.1178 311.947 60.4803Z" fill="white"/>
<path d="M351.207 67.5934C349.517 67.5934 348.188 67.1325 347.226 66.2175C346.265 65.3024 345.784 63.5992 345.784 61.1079V44.2763H360.364V37.2364H345.784V26.6699H336.627V37.2364H330.989V44.2763H336.627V61.1079C336.627 65.9436 337.709 69.5838 339.866 72.0217C342.023 74.4663 345.57 75.6819 350.499 75.6819C354.066 75.6819 358.267 75.0941 363.103 73.9186V65.1154C360.705 65.7232 358.501 66.2909 356.484 66.8052C354.467 67.3262 352.703 67.58 351.201 67.58L351.207 67.5934Z" fill="white"/>
<path d="M381.425 37.2363H372.268V74.9137H381.425V37.2363Z" fill="white"/>
<path d="M376.841 22.375C375.245 22.375 373.962 22.8425 373 23.7843C372.039 24.7261 371.558 25.9951 371.558 27.5848C371.558 29.1744 372.039 30.4635 373 31.4253C373.962 32.3871 375.245 32.868 376.841 32.868C378.437 32.868 379.713 32.3871 380.681 31.4253C381.643 30.4635 382.124 29.1811 382.124 27.5848C382.124 25.9884 381.643 24.7194 380.681 23.7843C379.72 22.8492 378.437 22.375 376.841 22.375Z" fill="white"/>
<path d="M424.378 41.8854C422.641 40.1488 420.564 38.813 418.146 37.8712C415.728 36.9295 413.063 36.4619 410.151 36.4619C407.239 36.4619 404.52 36.9295 402.122 37.8712C399.731 38.813 397.674 40.1488 395.958 41.8854C394.241 43.622 392.918 45.6859 391.977 48.0837C391.035 50.4816 390.567 53.1532 390.567 56.1121C390.567 59.071 391.035 61.7494 391.977 64.1405C392.918 66.5384 394.241 68.5889 395.958 70.3054C397.674 72.022 399.725 73.3445 402.122 74.2862C404.52 75.228 407.192 75.6955 410.151 75.6955C413.11 75.6955 415.728 75.228 418.146 74.2862C420.564 73.3512 422.641 72.022 424.378 70.3054C426.114 68.5889 427.45 66.5384 428.392 64.1405C429.333 61.7494 429.801 59.071 429.801 56.1121C429.801 53.1532 429.333 50.4816 428.392 48.0837C427.45 45.6926 426.114 43.622 424.378 41.8854ZM419.909 60.5471C419.415 61.9097 418.714 63.0919 417.799 64.1071C416.883 65.1157 415.781 65.9172 414.486 66.4983C413.197 67.0861 411.747 67.3799 410.157 67.3799C408.568 67.3799 407.118 67.0861 405.829 66.4983C404.54 65.9105 403.438 65.1157 402.523 64.1071C401.608 63.0986 400.893 61.9097 400.372 60.5471C399.858 59.1846 399.598 57.7085 399.598 56.1121C399.598 54.5158 399.858 53.0263 400.372 51.6437C400.887 50.2611 401.608 49.0589 402.523 48.0503C403.438 47.0418 404.54 46.2536 405.829 45.6926C407.118 45.1315 408.568 44.8443 410.157 44.8443C411.747 44.8443 413.197 45.1248 414.486 45.6926C415.775 46.2536 416.883 47.0418 417.799 48.0503C418.714 49.0589 419.415 50.2611 419.909 51.6437C420.403 53.0263 420.65 54.5225 420.65 56.1121C420.65 57.7018 420.403 59.1846 419.909 60.5471Z" fill="white"/>
<path d="M474.805 46.287C474.004 44.2432 472.882 42.4932 471.426 41.0372C469.97 39.5811 468.233 38.459 466.216 37.6575C464.199 36.8627 461.968 36.4619 459.523 36.4619C457.079 36.4619 455.015 36.8827 453.044 37.731C451.074 38.5792 449.431 39.7481 448.115 41.2509L446.706 37.2367H438.958V74.9141H448.115V53.5072C448.115 50.5951 448.957 48.2507 450.653 46.4674C452.343 44.684 454.594 43.789 457.413 43.789C460.231 43.789 462.562 44.684 464.279 46.4674C465.995 48.2507 466.85 50.6018 466.85 53.5072V74.9141H476.008V53.1532C476.008 50.6151 475.607 48.3309 474.812 46.287H474.805Z" fill="white"/>
</g>
<defs>
<clipPath id="clip0_8801_1075">
<rect width="476" height="98.064" fill="white"/>
</clipPath>
</defs>
</svg>
