<svg width="93" height="23" viewBox="0 0 93 23" fill="none" xmlns="http://www.w3.org/2000/svg">
<mask id="mask0_8801_1803" style="mask-type:luminance" maskUnits="userSpaceOnUse" x="0" y="0" width="93" height="23">
<path d="M0.219727 0L92.4737 0.427428L92.3699 22.8192L0.115982 22.3917L0.219727 0Z" fill="white"/>
</mask>
<g mask="url(#mask0_8801_1803)">
<path d="M29.9152 8.98228C29.8682 8.48271 29.6564 8.09524 29.2779 7.81717C28.8994 7.53954 28.3887 7.39745 27.746 7.39447C27.0855 7.39141 26.5797 7.52297 26.2246 7.78869C25.8696 8.05709 25.6934 8.3935 25.6915 8.80327C25.6804 9.25689 25.8745 9.60039 26.2734 9.8378C26.6731 10.0721 27.1483 10.2543 27.6999 10.385L28.8438 10.6634C29.5824 10.8326 30.2387 11.0734 30.81 11.39C31.384 11.7066 31.8349 12.1126 32.1627 12.6081C32.4909 13.1009 32.6516 13.7031 32.6483 14.4094C32.6398 15.5688 32.1971 16.4907 31.3265 17.1727C30.4527 17.8575 29.2383 18.1949 27.6812 18.1877C26.1362 18.1805 24.9018 17.8228 23.9843 17.1181C23.0646 16.4107 22.5929 15.374 22.567 14.0022L25.1734 14.0142C25.217 14.6508 25.4665 15.1285 25.9236 15.4508C26.3807 15.7722 26.9612 15.9348 27.6625 15.9381C28.3459 15.9412 28.8929 15.8013 29.3036 15.5126C29.7138 15.227 29.9234 14.85 29.9282 14.3883C29.9275 13.961 29.7391 13.6287 29.3658 13.3973C28.993 13.1627 28.4623 12.9631 27.7707 12.7942L26.384 12.4421C25.3104 12.1814 24.4618 11.7704 23.8424 11.2095C23.2225 10.649 22.9165 9.90331 22.9266 8.9705C22.9244 8.20333 23.1348 7.5303 23.5553 6.95677C23.9727 6.38322 24.5507 5.9385 25.2821 5.62213C26.0145 5.30576 26.8446 5.15018 27.7743 5.15448C28.7206 5.15887 29.547 5.32213 30.2522 5.64785C30.9578 5.97356 31.5079 6.42396 31.8994 6.99811C32.2912 7.57541 32.4897 8.23914 32.501 8.9947L29.9152 8.98228ZM37.8515 18.2402C36.8699 18.2356 36.0262 18.0315 35.3182 17.6301C34.6129 17.2287 34.0692 16.6623 33.6901 15.9252C33.3106 15.1912 33.1248 14.3243 33.1294 13.322C33.1339 12.3426 33.3278 11.4832 33.7141 10.7469C34.1 10.0107 34.6405 9.43768 35.3379 9.028C36.0349 8.61921 36.8509 8.41654 37.7891 8.42089C38.6333 8.4248 39.392 8.60521 40.0683 8.96304C40.7474 9.32087 41.2823 9.85808 41.6767 10.5774C42.0733 11.294 42.268 12.1932 42.263 13.2716L42.2596 13.9949L35.7472 13.9647L35.7472 13.9705C35.7439 14.6794 35.937 15.241 36.3238 15.6499C36.7133 16.0615 37.2386 16.2677 37.9045 16.2708C38.3483 16.2728 38.7317 16.1815 39.0568 15.9971C39.3823 15.815 39.6111 15.5402 39.7444 15.1776L42.1978 15.3489C42.007 16.2316 41.5303 16.9356 40.7684 17.4605C40.0059 17.9859 39.0347 18.2456 37.8515 18.2402ZM35.7548 12.3283L39.7692 12.3469C39.7691 11.7835 39.5899 11.3147 39.2293 10.9471C38.8687 10.576 38.402 10.3907 37.8234 10.388C37.2367 10.3853 36.7504 10.5751 36.3716 10.9509C35.9989 11.3153 35.7784 11.8076 35.7548 12.3283ZM49.2273 14.0563L49.2526 8.59581L51.9056 8.6081L51.8615 18.1192L49.3138 18.1074L49.3218 16.3815L49.2224 16.381C49.0101 16.9277 48.6333 17.3951 48.1441 17.7186C47.64 18.0535 47.0315 18.2222 46.3127 18.2189C45.3517 18.2144 44.573 17.8911 43.9795 17.2488C43.3868 16.6097 43.0931 15.7337 43.0919 14.6235L43.12 8.5674L45.773 8.57969L45.7471 14.1651C45.7476 14.7258 45.8974 15.1712 46.1941 15.4981C46.4936 15.8251 46.8927 15.9922 47.3952 15.9945C47.8717 15.9968 48.2961 15.833 48.6684 15.5033C49.0439 15.1737 49.2275 14.6926 49.2273 14.0563ZM53.1325 18.1251L53.1913 5.44332L58.2952 5.46697C59.7037 5.4735 60.7596 5.78382 61.4639 6.39704C62.1682 7.00803 62.5184 7.78801 62.514 8.73831C62.5105 9.4853 62.2914 10.0889 61.854 10.5459C61.4134 11.006 60.863 11.3058 60.1991 11.4509L60.1985 11.5759C60.6834 11.5983 61.1382 11.737 61.5638 11.992C61.9863 12.2438 62.3295 12.597 62.593 13.0487C62.8569 13.5005 62.9888 14.0385 62.9859 14.6659C62.9827 15.3404 62.8134 15.9383 62.4751 16.4657C62.1394 16.9926 61.644 17.4063 60.991 17.7056C60.338 18.0071 59.5338 18.1552 58.5813 18.1508L53.1325 18.1251ZM55.8391 15.9468L58.0361 15.957C58.7903 15.9605 59.34 15.8175 59.6862 15.5315C60.0292 15.242 60.2007 14.8622 60.2029 14.3861C60.2053 13.863 60.0201 13.4318 59.6451 13.096C59.2727 12.7602 58.762 12.5921 58.1131 12.5891L55.8547 12.5786L55.8391 15.9468ZM55.8631 10.7622L57.8618 10.7715C58.4139 10.774 58.8732 10.6337 59.24 10.3479C59.6063 10.0648 59.7895 9.67064 59.7918 9.17041C59.7939 8.71407 59.6317 8.34429 59.3088 8.0611C58.9827 7.77745 58.5221 7.63603 57.926 7.63327L55.8776 7.62378L55.8631 10.7622ZM68.0933 18.3803C67.126 18.3758 66.2918 18.1659 65.5892 17.7529C64.8903 17.3399 64.3492 16.7619 63.9698 16.0248C63.5907 15.285 63.4048 14.4296 63.4093 13.4533C63.4139 12.4712 63.6077 11.6145 63.9936 10.8783C64.3799 10.142 64.9262 9.57218 65.629 9.16566C66.3354 8.75602 67.1715 8.55657 68.1388 8.56105C69.1057 8.56553 69.9404 8.77272 70.643 9.18889C71.3419 9.6019 71.8829 10.1768 72.2624 10.9166C72.6388 11.6564 72.8274 12.5148 72.8228 13.4969C72.8183 14.4732 72.6218 15.3268 72.2386 16.0631C71.8523 16.7966 71.3059 17.3696 70.6032 17.7761C69.8968 18.1826 69.0602 18.3848 68.0933 18.3803ZM68.1144 16.3378C68.7719 16.3408 69.2698 16.0699 69.6082 15.5283C69.9497 14.9835 70.1226 14.2982 70.1265 13.467C70.1303 12.6358 69.9638 11.9494 69.6273 11.3983C69.294 10.8504 68.7986 10.5749 68.1412 10.5719C67.4752 10.5688 66.9684 10.8396 66.6241 11.3844C66.2826 11.9323 66.1101 12.6172 66.1063 13.4484C66.1024 14.2795 66.2685 14.9664 66.605 15.5143C66.9442 16.0591 67.4485 16.3347 68.1144 16.3378ZM76.3146 12.7343L76.2891 18.2324L73.6366 18.2201L73.6807 8.70899L76.2078 8.7207L76.2 10.4001L76.3142 10.4006C76.5213 9.85953 76.8974 9.39968 77.3866 9.08936C77.8848 8.76609 78.4869 8.609 79.1972 8.61229C80.1936 8.6169 80.9898 8.93722 81.5887 9.57952C82.1876 10.2187 82.4845 11.0951 82.4794 12.2049L82.4513 18.2609L79.801 18.2487L79.8269 12.6633C79.8328 12.0824 79.6857 11.6254 79.3832 11.2953C79.0811 10.9656 78.6671 10.8011 78.1351 10.7987C77.6004 10.7962 77.1643 10.9657 76.83 11.3041C76.4921 11.6429 76.3206 12.1181 76.3146 12.7343ZM88.0014 18.4725C87.0197 18.468 86.176 18.2639 85.4681 17.8625C84.7628 17.4611 84.219 16.8947 83.84 16.1576C83.4605 15.4236 83.2746 14.5566 83.2793 13.5544C83.2838 12.5749 83.4777 11.7155 83.864 10.9793C84.2498 10.243 84.7904 9.67003 85.4878 9.26035C86.1847 8.85157 87.0007 8.64889 87.9389 8.65324C88.7831 8.65715 89.5418 8.83756 90.2182 9.19539C90.8973 9.55323 91.4322 10.0904 91.8265 10.8097C92.2231 11.5263 92.4178 12.4256 92.4128 13.504L92.4095 14.2272L85.8971 14.197L85.897 14.2029C85.8937 14.9118 86.0869 15.4734 86.4737 15.8823C86.8632 16.2938 87.3885 16.5001 88.0544 16.5031C88.4982 16.5052 88.8815 16.4138 89.2071 16.2295C89.5321 16.0474 89.7609 15.7725 89.8943 15.41L92.3477 15.5812C92.1568 16.4639 91.6802 17.168 90.9178 17.6929C90.1558 18.2183 89.1846 18.478 88.0014 18.4725ZM85.9046 12.5607L89.919 12.5793C89.919 12.0159 89.7397 11.547 89.3791 11.1795C89.0186 10.8083 88.5519 10.623 87.9733 10.6203C87.3862 10.6176 86.9003 10.8075 86.5214 11.1833C86.1487 11.5477 85.9283 12.04 85.9046 12.5607ZM86.9302 7.54373L88.2692 4.73389L90.7149 4.74522L88.803 7.55241L86.9302 7.54373Z" fill="#D1D1D6"/>
<path d="M0.147151 15.6644L3.67885 12.1844C2.6572 10.6852 2.19501 8.87465 2.37308 7.06922C2.55115 5.26379 3.35815 3.57839 4.65299 2.30769L4.65302 2.30187L4.65347 2.30097L4.65392 2.30008C6.12946 0.84429 8.12247 0.0336598 10.1952 0.0462263C12.1926 0.0554803 14.19 0.82607 15.711 2.35131L15.7168 2.35134L15.7177 2.35224L16.7376 3.37715L15.7082 4.39167L11.1796 8.85317L6.65222 13.3151L5.6224 14.331L5.62106 14.3296L2.18834 17.7129L0.147151 15.6644ZM8.75429 13.6298L13.2825 9.16744L14.3128 8.15292L14.3137 8.15337L17.7473 4.77015L19.7876 6.81819L16.2581 10.2964C17.1397 11.5914 17.6074 13.1235 17.5992 14.6901C17.59 16.6803 16.8168 18.6687 15.2817 20.1816L15.2808 20.1825L15.275 20.1824C13.8008 21.6372 11.8097 22.4478 9.7386 22.4363C7.66776 22.4285 5.68459 21.5995 4.22423 20.1312L4.21841 20.1312L4.21752 20.1303L3.19759 19.1063L4.22696 18.0918L8.75429 13.6298ZM11.55 14.9339L10.795 15.6783L7.44959 18.9746C8.15923 19.3504 8.94945 19.5483 9.75242 19.5514C11.0149 19.5572 12.2782 19.0848 13.2432 18.1367L13.2401 18.134L13.241 18.1331C13.7003 17.6819 14.0655 17.1441 14.3156 16.5508C14.5658 15.9575 14.6958 15.3205 14.6982 14.6767C14.7018 13.8885 14.5156 13.0994 14.14 12.3838L11.5508 14.9357L11.55 14.9339ZM5.79337 10.1005L8.38389 7.54729L9.13881 6.80468L12.4847 3.50837C11.7751 3.13264 10.9848 2.93473 10.1819 2.93162C8.87743 2.92328 7.62302 3.43307 6.69421 4.34902L6.69331 4.34991L6.69019 4.34765C6.23151 4.79957 5.86684 5.33782 5.61721 5.93136C5.36757 6.5249 5.2379 7.16199 5.23569 7.80588C5.23204 8.59452 5.41871 9.38449 5.79382 10.1001L5.79337 10.1005Z" fill="#D1D1D6"/>
</g>
</svg>
